<svg xmlns="http://www.w3.org/2000/svg" version="1.1" xmlns:xlink="http://www.w3.org/1999/xlink" xmlns:svgjs="http://svgjs.dev/svgjs" width="1500" height="1500" viewBox="0 0 1500 1500"><rect width="1500" height="1500" fill="#ffffff"></rect><g transform="matrix(0.6666666666666666,0,0,0.6666666666666666,249.39393939393938,671.7591158028245)"><svg viewBox="0 0 396 61" data-background-color="#ffffff" preserveAspectRatio="xMidYMid meet" height="231" width="1500" xmlns="http://www.w3.org/2000/svg" xmlns:xlink="http://www.w3.org/1999/xlink"><g id="tight-bounds" transform="matrix(1,0,0,1,0.2400000000000091,0.4915190651149999)"><svg viewBox="0 0 395.52 60.016961869769986" height="60.016961869769986" width="395.52"><g><svg viewBox="0 0 488.82624575972113 74.1754302" height="60.016961869769986" width="395.52"><g><svg viewBox="0 0 488.82624575972113 74.1754302" height="74.1754302" width="488.82624575972113"><g id="textblocktransform"><svg viewBox="0 0 488.82624575972113 74.1754302" height="74.1754302" width="488.82624575972113" id="textblock"><g><svg viewBox="0 0 488.82624575972113 74.1754302" height="74.1754302" width="488.82624575972113"><g><svg><g></g><g></g></svg></g><g><svg><g></g><g><svg></svg></g></svg></g><g id="text-0"><svg viewBox="0 0 488.82624575972113 74.1754302" height="74.1754302" width="488.82624575972113"><g><svg xmlns="http://www.w3.org/2000/svg" xmlns:xlink="http://www.w3.org/1999/xlink" version="1.1" x="0" y="0" viewBox="11.017823632605122 11.461749422187646 37.96369815853941 37.06825057781236" style="enable-background:new 0 0 60 60;" xml:space="preserve" height="74.1754302" width="75.96726575972114" class="icon-dxe-0" data-fill-palette-color="accent" id="dxe-0"><path d="M48.85 34.1L35.82 11.92A0.945 0.945 0 0 0 34.2 11.92L30 19.08 25.79 11.93A0.945 0.945 0 0 0 24.17 11.93L11.15 34.1C10.93 34.47 10.99 34.93 11.29 35.23L24.32 48.26C24.5 48.44 24.74 48.53 24.98 48.53S25.46 48.44 25.64 48.26L30 43.91 34.35 48.26C34.53 48.44 34.77 48.53 35.01 48.53S35.49 48.44 35.67 48.26L48.7 35.23C49.01 34.93 49.07 34.46 48.85 34.1M24.99 46.28L13.13 34.42 24.99 14.24 28.92 20.92 21.17 34.1C20.95 34.47 21.01 34.93 21.31 35.23L28.67 42.59zM30 22.77L36.85 34.42 30 41.27 23.15 34.42zM35.01 46.28L31.32 42.59 38.68 35.23C38.98 34.93 39.04 34.46 38.82 34.1L31.08 20.93 35.01 14.25 46.87 34.43z" fill="#000000" data-fill-palette-color="accent"></path></svg></g><g transform="matrix(1,0,0,1,93.30624575972115,5.811316493728224)"><svg width="395.52" viewBox="3.55 -35.2 287.68 45.3899306111" height="62.552797212543545" data-palette-color="#222222"><g class="wordmark-text-0" data-fill-palette-color="primary"><path d="M10.65-34.6L10.65-34.6Q13.25-34.6 15.98-34.6 18.7-34.6 21.35-34.5 24-34.4 26.35-34.2L26.35-34.2 26.05-29.55 12.55-29.55Q11.15-29.55 10.48-28.85 9.8-28.15 9.8-26.65L9.8-26.65 9.8-7.85Q9.8-6.35 10.48-5.65 11.15-4.95 12.55-4.95L12.55-4.95 26.05-4.95 26.35-0.3Q24-0.1 21.35-0.03 18.7 0.05 15.98 0.08 13.25 0.1 10.65 0.1L10.65 0.1Q7.45 0.1 5.53-1.68 3.6-3.45 3.55-6.45L3.55-6.45 3.55-28.05Q3.6-31.05 5.53-32.83 7.45-34.6 10.65-34.6ZM4.45-15.75L4.45-20.35 24.15-20.35 24.15-15.75 4.45-15.75ZM49-24.55L55.4-24.55 46.95-1.45Q46.7-0.8 46.17-0.4 45.65 0 44.9 0L44.9 0 39.6 0Q38.9 0 38.35-0.4 37.8-0.8 37.55-1.45L37.55-1.45 29.1-24.55 35.55-24.55 40.7-8.45Q41.05-7.35 41.35-6.23 41.65-5.1 41.9-4.05L41.9-4.05 42.55-4.05Q42.9-5.15 43.22-6.25 43.55-7.35 43.85-8.45L43.85-8.45 49-24.55ZM70.4-25.15L70.4-25.15Q76.34-25.15 78.95-23.08 81.55-21 81.59-16.95L81.59-16.95Q81.65-13.6 80.02-11.88 78.4-10.15 74.65-10.15L74.65-10.15 60.65-10.15 60.65-13.9 73-13.9Q74.7-13.9 75.17-14.8 75.65-15.7 75.65-17L75.65-17Q75.59-19.05 74.47-19.85 73.34-20.65 70.65-20.65L70.65-20.65Q68.3-20.65 67-20 65.7-19.35 65.17-17.65 64.64-15.95 64.64-12.75L64.64-12.75Q64.64-9.35 65.3-7.5 65.95-5.65 67.45-4.98 68.95-4.3 71.45-4.3L71.45-4.3Q73.3-4.3 75.72-4.45 78.15-4.6 80.4-4.85L80.4-4.85 81-1Q79.65-0.45 77.9-0.1 76.15 0.25 74.27 0.43 72.4 0.6 70.75 0.6L70.75 0.6Q66.25 0.6 63.52-0.73 60.8-2.05 59.57-4.9 58.34-7.75 58.34-12.25L58.34-12.25Q58.34-17.1 59.57-19.93 60.8-22.75 63.47-23.95 66.15-25.15 70.4-25.15ZM103.19-25.15L103.19-25.15Q110.04-25.15 110.04-18.4L110.04-18.4 110.04 0 103.99 0 103.99-16.55Q103.99-18.55 103.29-19.3 102.59-20.05 100.94-20.05L100.94-20.05Q99.09-20.05 97.14-19.23 95.19-18.4 92.44-16.85L92.44-16.85 92.19-20.5Q94.94-22.75 97.72-23.95 100.49-25.15 103.19-25.15ZM87.04-24.55L91.99-24.55 92.59-19.75 93.09-19.05 93.09 0 87.04 0 87.04-24.55ZM118.74-31.55L124.79-31.55 124.79-7.4Q124.79-5.9 125.47-5.23 126.14-4.55 127.79-4.55L127.79-4.55 131.19-4.55 131.84-0.3Q130.99-0.05 129.79 0.15 128.59 0.35 127.44 0.43 126.29 0.5 125.49 0.5L125.49 0.5Q122.29 0.5 120.52-1.23 118.74-2.95 118.74-6.2L118.74-6.2 118.74-31.55ZM119.19-24.55L132.09-24.55 132.09-20.35 114.39-20.35 114.39-24.3 119.19-24.55ZM149.99-34.95L149.99-34.95Q153.89-34.95 156.61-34.08 159.34-33.2 161.01-31.18 162.69-29.15 163.44-25.73 164.19-22.3 164.19-17.25L164.19-17.25Q164.19-12.2 163.44-8.78 162.69-5.35 161.01-3.33 159.34-1.3 156.61-0.43 153.89 0.45 149.99 0.45L149.99 0.45Q146.24 0.45 143.04 0.33 139.84 0.2 136.99 0L136.99 0 139.59-4.8Q141.59-4.7 144.19-4.63 146.79-4.55 149.99-4.55L149.99-4.55Q152.89-4.55 154.56-5.68 156.24-6.8 156.94-9.58 157.64-12.35 157.64-17.25L157.64-17.25Q157.64-22.15 156.94-24.93 156.24-27.7 154.56-28.85 152.89-30 149.99-30L149.99-30Q146.89-30 144.46-29.95 142.04-29.9 139.74-29.9L139.74-29.9 136.99-34.5Q139.84-34.7 143.01-34.83 146.19-34.95 149.99-34.95ZM136.99-34.5L143.24-34.5 143.24 0 136.99 0 136.99-34.5ZM170.14-24.55L176.19-24.55 176.19-7.95Q176.14-6.1 176.91-5.3 177.69-4.5 179.44-4.5L179.44-4.5Q181.19-4.5 182.94-5.25 184.69-6 187.19-7.5L187.19-7.5 187.79-3.9Q184.99-1.65 182.39-0.5 179.79 0.65 176.99 0.65L176.99 0.65Q170.14 0.65 170.14-6.1L170.14-6.1 170.14-24.55ZM186.59-24.55L192.64-24.55 192.64 0 187.84 0 187.19-4.75 186.59-5.45 186.59-24.55ZM215.58-25.15L215.58-25.15Q222.43-25.15 222.43-18.4L222.43-18.4 222.43 0 216.38 0 216.38-16.55Q216.38-18.55 215.68-19.3 214.98-20.05 213.33-20.05L213.33-20.05Q211.48-20.05 209.53-19.23 207.58-18.4 204.83-16.85L204.83-16.85 204.58-20.5Q207.33-22.75 210.11-23.95 212.88-25.15 215.58-25.15ZM199.43-24.55L204.38-24.55 204.98-19.75 205.48-19.05 205.48 0 199.43 0 199.43-24.55ZM229.28-24.55L235.28-24.55 235.28 0 229.28 0 229.28-24.55ZM230.93-35.2L233.63-35.2Q235.43-35.2 235.43-33.4L235.43-33.4 235.43-30.6Q235.43-28.8 233.63-28.8L233.63-28.8 230.93-28.8Q229.13-28.8 229.13-30.6L229.13-30.6 229.13-33.4Q229.13-35.2 230.93-35.2L230.93-35.2ZM259.23-24.55L265.73-24.55 256.53 0.75Q255.88 2.5 254.9 4.23 253.93 5.95 252.43 7.35 250.93 8.75 248.88 9.55 246.83 10.35 244.13 10.15L244.13 10.15 243.63 6.55Q246.63 5.7 248.3 4.25 249.98 2.8 250.93 0.55L250.93 0.55 252.28-2.65Q252.73-3.75 253.15-5.18 253.58-6.6 253.88-7.65L253.88-7.65 259.23-24.55ZM239.48-24.55L245.93-24.55 251.38-7.65Q251.63-6.8 251.83-5.93 252.03-5.05 252.18-4.2L252.18-4.2 253.43-4.2 251.53 0 249.93 0Q249.23 0 248.68-0.4 248.13-0.8 247.93-1.5L247.93-1.5 239.48-24.55ZM282.13-25.15L282.13-25.15Q285.08-25.15 287.13-24.38 289.18-23.6 290.2-21.75 291.23-19.9 291.23-16.65L291.23-16.65 291.23 0 286.43 0 285.58-5.3 285.13-6 285.13-16.7Q285.13-18.65 284.23-19.53 283.33-20.4 280.78-20.4L280.78-20.4Q278.88-20.4 276-20.25 273.13-20.1 270.23-19.85L270.23-19.85 269.68-24Q271.43-24.35 273.63-24.6 275.83-24.85 278.08-25 280.33-25.15 282.13-25.15ZM275.68-15.1L288.63-15.1 288.58-11.35 277.33-11.35Q275.83-11.3 275.18-10.55 274.53-9.8 274.53-8.5L274.53-8.5 274.53-7.15Q274.53-5.65 275.33-4.9 276.13-4.15 277.83-4.15L277.83-4.15Q279.18-4.15 280.83-4.67 282.48-5.2 284.1-6.25 285.73-7.3 287.03-8.75L287.03-8.75 287.03-5.6Q286.53-4.85 285.58-3.83 284.63-2.8 283.25-1.8 281.88-0.8 280.1-0.15 278.33 0.5 276.18 0.5L276.18 0.5Q273.98 0.5 272.23-0.28 270.48-1.05 269.48-2.58 268.48-4.1 268.48-6.35L268.48-6.35 268.48-8.95Q268.48-11.85 270.4-13.48 272.33-15.1 275.68-15.1L275.68-15.1Z" fill="#000000" data-fill-palette-color="primary"></path></g></svg></g></svg></g></svg></g></svg></g></svg></g></svg></g><defs></defs></svg><rect width="395.52" height="60.016961869769986" fill="none" stroke="none" visibility="hidden"></rect></g></svg></g></svg>